<mxfile host="app.diagrams.net" modified="2021-03-31T02:45:25.395Z" agent="5.0 (X11; Linux x86_64) AppleWebKit/537.36 (KHTML, like Gecko) Chrome/89.0.4389.90 Safari/537.36" etag="dgnspR7pzIfhAIblAAKi" version="14.5.3" type="github">
  <diagram name="Page-1" id="74e2e168-ea6b-b213-b513-2b3c1d86103e">
    <mxGraphModel dx="863" dy="448" grid="1" gridSize="10" guides="1" tooltips="1" connect="1" arrows="1" fold="1" page="1" pageScale="1" pageWidth="1100" pageHeight="850" background="#ffffff" math="0" shadow="0">
      <root>
        <mxCell id="0" />
        <mxCell id="1" parent="0" />
        <mxCell id="77e6c97f196da883-1" value="Orig_manager" style="swimlane;html=1;childLayout=stackLayout;startSize=20;rounded=0;shadow=0;labelBackgroundColor=none;strokeWidth=1;fontFamily=Verdana;fontSize=8;align=center;" parent="1" vertex="1">
          <mxGeometry x="70" y="40" width="490" height="750" as="geometry" />
        </mxCell>
        <mxCell id="77e6c97f196da883-2" value="Oirg cli" style="swimlane;html=1;startSize=20;" parent="77e6c97f196da883-1" vertex="1">
          <mxGeometry y="20" width="160" height="730" as="geometry" />
        </mxCell>
        <mxCell id="77e6c97f196da883-8" value="&lt;span style=&quot;font-size: 18px&quot;&gt;Start&lt;/span&gt;" style="rounded=1;whiteSpace=wrap;html=1;shadow=0;labelBackgroundColor=none;strokeWidth=1;fontFamily=Verdana;fontSize=8;align=center;" parent="77e6c97f196da883-2" vertex="1">
          <mxGeometry x="20" y="65" width="100" height="35" as="geometry" />
        </mxCell>
        <mxCell id="tcmjZ4RnvfpwgNHJ25SG-7" style="edgeStyle=orthogonalEdgeStyle;rounded=0;orthogonalLoop=1;jettySize=auto;html=1;exitX=0.5;exitY=1;exitDx=0;exitDy=0;" parent="77e6c97f196da883-2" source="77e6c97f196da883-8" target="77e6c97f196da883-8" edge="1">
          <mxGeometry relative="1" as="geometry" />
        </mxCell>
        <mxCell id="UkYoz0detsYSTsdpVcY6-1" value="&lt;span style=&quot;font-size: 18px&quot;&gt;Install&lt;/span&gt;" style="rounded=1;whiteSpace=wrap;html=1;shadow=0;labelBackgroundColor=none;strokeWidth=1;fontFamily=Verdana;fontSize=8;align=center;" vertex="1" parent="77e6c97f196da883-2">
          <mxGeometry x="20" y="210" width="100" height="35" as="geometry" />
        </mxCell>
        <mxCell id="UkYoz0detsYSTsdpVcY6-15" value="&lt;span style=&quot;font-size: 18px&quot;&gt;Remove&lt;/span&gt;" style="rounded=1;whiteSpace=wrap;html=1;shadow=0;labelBackgroundColor=none;strokeWidth=1;fontFamily=Verdana;fontSize=8;align=center;" vertex="1" parent="77e6c97f196da883-2">
          <mxGeometry x="20" y="417.5" width="100" height="35" as="geometry" />
        </mxCell>
        <mxCell id="77e6c97f196da883-26" style="edgeStyle=orthogonalEdgeStyle;rounded=1;html=1;labelBackgroundColor=none;startArrow=none;startFill=0;startSize=5;endArrow=classicThin;endFill=1;endSize=5;jettySize=auto;orthogonalLoop=1;strokeWidth=1;fontFamily=Verdana;fontSize=8" parent="77e6c97f196da883-1" source="77e6c97f196da883-8" target="77e6c97f196da883-11" edge="1">
          <mxGeometry relative="1" as="geometry" />
        </mxCell>
        <mxCell id="77e6c97f196da883-3" value="PkgManager" style="swimlane;html=1;startSize=20;" parent="77e6c97f196da883-1" vertex="1">
          <mxGeometry x="160" y="20" width="170" height="730" as="geometry" />
        </mxCell>
        <mxCell id="77e6c97f196da883-11" value="&lt;font style=&quot;font-size: 12px&quot;&gt;Update&lt;/font&gt;" style="rounded=1;whiteSpace=wrap;html=1;shadow=0;labelBackgroundColor=none;strokeWidth=1;fontFamily=Verdana;fontSize=8;align=center;" parent="77e6c97f196da883-3" vertex="1">
          <mxGeometry x="30" y="52.5" width="100" height="60" as="geometry" />
        </mxCell>
        <mxCell id="tcmjZ4RnvfpwgNHJ25SG-11" value="&lt;font style=&quot;font-size: 12px&quot;&gt;Update Index&lt;/font&gt;" style="rounded=1;whiteSpace=wrap;html=1;shadow=0;labelBackgroundColor=none;strokeWidth=1;fontFamily=Verdana;fontSize=8;align=center;" parent="77e6c97f196da883-3" vertex="1">
          <mxGeometry x="30" y="140" width="100" height="30" as="geometry" />
        </mxCell>
        <mxCell id="tcmjZ4RnvfpwgNHJ25SG-12" value="" style="edgeStyle=orthogonalEdgeStyle;rounded=0;orthogonalLoop=1;jettySize=auto;html=1;" parent="77e6c97f196da883-3" source="77e6c97f196da883-11" target="tcmjZ4RnvfpwgNHJ25SG-11" edge="1">
          <mxGeometry relative="1" as="geometry" />
        </mxCell>
        <mxCell id="UkYoz0detsYSTsdpVcY6-5" style="edgeStyle=orthogonalEdgeStyle;rounded=0;orthogonalLoop=1;jettySize=auto;html=1;exitX=0.5;exitY=1;exitDx=0;exitDy=0;entryX=0.5;entryY=0;entryDx=0;entryDy=0;" edge="1" parent="77e6c97f196da883-3" source="UkYoz0detsYSTsdpVcY6-2" target="UkYoz0detsYSTsdpVcY6-4">
          <mxGeometry relative="1" as="geometry" />
        </mxCell>
        <mxCell id="UkYoz0detsYSTsdpVcY6-2" value="&lt;font style=&quot;font-size: 12px&quot;&gt;Install Ipkg&lt;/font&gt;" style="rounded=1;whiteSpace=wrap;html=1;shadow=0;labelBackgroundColor=none;strokeWidth=1;fontFamily=Verdana;fontSize=8;align=center;" vertex="1" parent="77e6c97f196da883-3">
          <mxGeometry x="30" y="212" width="100" height="30" as="geometry" />
        </mxCell>
        <mxCell id="UkYoz0detsYSTsdpVcY6-4" value="Ipkg Exist&lt;br&gt;Local?" style="rhombus;whiteSpace=wrap;html=1;" vertex="1" parent="77e6c97f196da883-3">
          <mxGeometry x="40" y="270" width="80" height="60" as="geometry" />
        </mxCell>
        <mxCell id="UkYoz0detsYSTsdpVcY6-9" value="no" style="text;html=1;strokeColor=none;fillColor=none;align=center;verticalAlign=middle;whiteSpace=wrap;rounded=0;" vertex="1" parent="77e6c97f196da883-3">
          <mxGeometry x="130" y="280" width="40" height="20" as="geometry" />
        </mxCell>
        <mxCell id="UkYoz0detsYSTsdpVcY6-10" value="Install Package" style="whiteSpace=wrap;html=1;" vertex="1" parent="77e6c97f196da883-3">
          <mxGeometry x="20" y="365" width="120" height="30" as="geometry" />
        </mxCell>
        <mxCell id="UkYoz0detsYSTsdpVcY6-11" value="" style="edgeStyle=orthogonalEdgeStyle;rounded=0;orthogonalLoop=1;jettySize=auto;html=1;" edge="1" parent="77e6c97f196da883-3" source="UkYoz0detsYSTsdpVcY6-4" target="UkYoz0detsYSTsdpVcY6-10">
          <mxGeometry relative="1" as="geometry" />
        </mxCell>
        <mxCell id="UkYoz0detsYSTsdpVcY6-16" value="&lt;font style=&quot;font-size: 12px&quot;&gt;Remove Ipkg&lt;/font&gt;" style="rounded=1;whiteSpace=wrap;html=1;shadow=0;labelBackgroundColor=none;strokeWidth=1;fontFamily=Verdana;fontSize=8;align=center;" vertex="1" parent="77e6c97f196da883-3">
          <mxGeometry x="30" y="420" width="100" height="30" as="geometry" />
        </mxCell>
        <mxCell id="77e6c97f196da883-4" value="Ipkg OTA Server" style="swimlane;html=1;startSize=20;" parent="77e6c97f196da883-1" vertex="1">
          <mxGeometry x="330" y="20" width="160" height="730" as="geometry" />
        </mxCell>
        <mxCell id="UkYoz0detsYSTsdpVcY6-6" value="Download ipkg" style="whiteSpace=wrap;html=1;" vertex="1" parent="77e6c97f196da883-4">
          <mxGeometry x="25" y="285" width="90" height="30" as="geometry" />
        </mxCell>
        <mxCell id="UkYoz0detsYSTsdpVcY6-13" value="Download &lt;br&gt;ipkg index" style="whiteSpace=wrap;html=1;" vertex="1" parent="77e6c97f196da883-4">
          <mxGeometry x="25" y="67.5" width="90" height="30" as="geometry" />
        </mxCell>
        <mxCell id="tcmjZ4RnvfpwgNHJ25SG-9" value="" style="edgeStyle=orthogonalEdgeStyle;rounded=0;orthogonalLoop=1;jettySize=auto;html=1;" parent="77e6c97f196da883-1" source="77e6c97f196da883-11" target="UkYoz0detsYSTsdpVcY6-13" edge="1">
          <mxGeometry relative="1" as="geometry">
            <mxPoint x="350" y="102.5" as="targetPoint" />
          </mxGeometry>
        </mxCell>
        <mxCell id="UkYoz0detsYSTsdpVcY6-3" style="edgeStyle=orthogonalEdgeStyle;rounded=0;orthogonalLoop=1;jettySize=auto;html=1;exitX=1;exitY=0.5;exitDx=0;exitDy=0;" edge="1" parent="77e6c97f196da883-1" source="UkYoz0detsYSTsdpVcY6-1" target="UkYoz0detsYSTsdpVcY6-2">
          <mxGeometry relative="1" as="geometry" />
        </mxCell>
        <object label="" id="UkYoz0detsYSTsdpVcY6-7">
          <mxCell style="edgeStyle=orthogonalEdgeStyle;rounded=0;orthogonalLoop=1;jettySize=auto;html=1;" edge="1" parent="77e6c97f196da883-1" source="UkYoz0detsYSTsdpVcY6-4" target="UkYoz0detsYSTsdpVcY6-6">
            <mxGeometry relative="1" as="geometry" />
          </mxCell>
        </object>
        <mxCell id="UkYoz0detsYSTsdpVcY6-12" style="edgeStyle=orthogonalEdgeStyle;rounded=0;orthogonalLoop=1;jettySize=auto;html=1;exitX=0.5;exitY=1;exitDx=0;exitDy=0;entryX=1;entryY=0.5;entryDx=0;entryDy=0;" edge="1" parent="77e6c97f196da883-1" source="UkYoz0detsYSTsdpVcY6-6" target="UkYoz0detsYSTsdpVcY6-10">
          <mxGeometry relative="1" as="geometry" />
        </mxCell>
        <mxCell id="UkYoz0detsYSTsdpVcY6-17" style="edgeStyle=orthogonalEdgeStyle;rounded=0;orthogonalLoop=1;jettySize=auto;html=1;exitX=1;exitY=0.5;exitDx=0;exitDy=0;" edge="1" parent="77e6c97f196da883-1" source="UkYoz0detsYSTsdpVcY6-15" target="UkYoz0detsYSTsdpVcY6-16">
          <mxGeometry relative="1" as="geometry" />
        </mxCell>
        <mxCell id="UkYoz0detsYSTsdpVcY6-18" value="ipkgs&lt;br&gt;server" style="shape=cylinder3;whiteSpace=wrap;html=1;boundedLbl=1;backgroundOutline=1;size=15;" vertex="1" parent="1">
          <mxGeometry x="730" y="290" width="60" height="80" as="geometry" />
        </mxCell>
      </root>
    </mxGraphModel>
  </diagram>
</mxfile>
